<svg width="204" height="94" viewBox="0 0 204 94" fill="none" xmlns="http://www.w3.org/2000/svg">
<path d="M2 40.4C2 26.9587 2 20.2381 4.61584 15.1042C6.9168 10.5883 10.5883 6.9168 15.1042 4.61584C20.2381 2 26.9587 2 40.4 2H53.6C67.0413 2 73.7619 2 78.8958 4.61584C83.4117 6.9168 87.0832 10.5883 89.3842 15.1042C92 20.2381 92 26.9587 92 40.4V92H40.4C26.9587 92 20.2381 92 15.1042 89.3842C10.5883 87.0832 6.9168 83.4117 4.61584 78.8958C2 73.7619 2 67.0413 2 53.6V40.4Z" stroke="#E4E7FF" stroke-width="3"/>
<path fill-rule="evenodd" clip-rule="evenodd" d="M26 25H45V48H48V51H45V70H26V25ZM49 25H68V70H49V25Z" fill="#E4E7FF"/>
<path d="M128.27 24.136V28.616H136.974V32.872H128.27V41H122.766V19.88H139.182V24.136H128.27Z" fill="#E4E7FF"/>
<path d="M158.046 32.776C158.046 33.5013 157.993 34.0986 157.886 34.568H146.974C147.145 35.5706 147.507 36.3066 148.062 36.776C148.638 37.2453 149.395 37.48 150.334 37.48C151.123 37.48 151.763 37.3306 152.254 37.032C152.766 36.7333 153.107 36.296 153.278 35.72L157.694 37.128C157.246 38.4933 156.371 39.5386 155.07 40.264C153.79 40.968 152.211 41.32 150.334 41.32C147.539 41.32 145.395 40.5946 143.902 39.144C142.43 37.6933 141.694 35.6453 141.694 33C141.694 30.3546 142.419 28.3066 143.87 26.856C145.321 25.4053 147.379 24.68 150.046 24.68C152.627 24.68 154.601 25.3946 155.966 26.824C157.353 28.232 158.046 30.216 158.046 32.776ZM150.014 28.488C148.286 28.488 147.262 29.5333 146.942 31.624H152.958C152.702 29.5333 151.721 28.488 150.014 28.488Z" fill="#E4E7FF"/>
<path d="M168.543 35.464C168.543 36.1893 168.65 36.7013 168.863 37C169.076 37.2986 169.46 37.448 170.015 37.448C170.527 37.448 171.071 37.352 171.647 37.16L171.295 40.52C170.911 40.7546 170.41 40.9466 169.791 41.096C169.172 41.2453 168.564 41.32 167.967 41.32C166.26 41.32 165.023 40.9253 164.255 40.136C163.487 39.3253 163.103 38.0346 163.103 36.264V18.216H168.543V35.464Z" fill="#E4E7FF"/>
<path d="M178.436 23.144C177.327 23.144 176.516 22.9413 176.004 22.536C175.513 22.1093 175.268 21.448 175.268 20.552C175.268 19.6346 175.513 18.9733 176.004 18.568C176.516 18.1413 177.327 17.928 178.436 17.928C179.545 17.928 180.345 18.1413 180.836 18.568C181.348 18.9733 181.604 19.6346 181.604 20.552C181.604 21.448 181.348 22.1093 180.836 22.536C180.345 22.9413 179.545 23.144 178.436 23.144ZM181.156 41H175.716V25H181.156V41Z" fill="#E4E7FF"/>
<path d="M197.668 41L194.532 35.432L191.332 41H185.316L191.076 32.904L185.54 25H191.716L194.66 30.344L197.668 25H203.684L198.116 32.936L203.812 41H197.668Z" fill="#E4E7FF"/>
<path d="M141.901 56.88V78H136.397V69.488H128.333V78H122.829V56.88H128.333V65.232H136.397V56.88H141.901Z" fill="#E4E7FF"/>
<path d="M163.028 74.896C163.433 74.896 163.764 74.8533 164.02 74.768L163.604 77.808C162.985 78.1493 162.26 78.32 161.428 78.32C159.124 78.32 157.748 77.4986 157.3 75.856C156.34 77.4986 154.441 78.32 151.604 78.32C150.004 78.32 148.777 77.9786 147.924 77.296C147.071 76.6133 146.644 75.6213 146.644 74.32C146.644 72.9546 147.124 71.856 148.084 71.024C149.065 70.1706 150.665 69.52 152.884 69.072L156.5 68.368V67.792C156.5 67.0666 156.297 66.4906 155.892 66.064C155.487 65.6373 154.932 65.424 154.228 65.424C153.417 65.424 152.756 65.616 152.244 66C151.732 66.384 151.401 67.0133 151.252 67.888L146.836 66.608C147.113 65.0506 147.881 63.8453 149.14 62.992C150.399 62.1173 152.095 61.68 154.228 61.68C156.724 61.68 158.623 62.192 159.924 63.216C161.225 64.24 161.876 65.776 161.876 67.824V73.648C161.876 74.48 162.26 74.896 163.028 74.896ZM153.588 74.8C154.335 74.8 155.007 74.5973 155.604 74.192C156.201 73.7653 156.5 73.2106 156.5 72.528V71.152L153.908 71.76C153.225 71.9306 152.735 72.144 152.436 72.4C152.159 72.6346 152.02 72.976 152.02 73.424C152.02 73.872 152.159 74.2133 152.436 74.448C152.713 74.6826 153.097 74.8 153.588 74.8Z" fill="#E4E7FF"/>
<path d="M183.542 62V78H178.678L178.518 75.024C177.515 77.2213 175.67 78.32 172.982 78.32C171.275 78.32 169.931 77.872 168.95 76.976C167.99 76.0586 167.51 74.6293 167.51 72.688V62H172.95V71.312C172.95 72.3573 173.131 73.0933 173.494 73.52C173.857 73.9466 174.411 74.16 175.158 74.16C176.054 74.16 176.769 73.8613 177.302 73.264C177.835 72.6453 178.102 71.7173 178.102 70.48V62H183.542Z" fill="#E4E7FF"/>
<path d="M195.514 78.32C191.844 78.32 189.242 77.3813 187.706 75.504L190.522 72.432C191.439 73.9466 193.018 74.704 195.258 74.704C196.004 74.704 196.591 74.608 197.018 74.416C197.444 74.2026 197.658 73.9253 197.658 73.584C197.658 73.2853 197.434 73.0293 196.986 72.816C196.559 72.5813 195.812 72.3573 194.746 72.144C192.356 71.6746 190.65 71.0346 189.626 70.224C188.623 69.4133 188.122 68.336 188.122 66.992C188.122 66.0746 188.41 65.2106 188.986 64.4C189.562 63.5893 190.426 62.9386 191.578 62.448C192.751 61.936 194.17 61.68 195.834 61.68C197.668 61.68 199.162 61.936 200.314 62.448C201.487 62.9386 202.436 63.6853 203.162 64.688L200.346 67.44C199.834 66.6933 199.226 66.1493 198.522 65.808C197.818 65.4666 196.975 65.296 195.994 65.296C195.226 65.296 194.628 65.4133 194.202 65.648C193.775 65.8826 193.562 66.1706 193.562 66.512C193.562 66.832 193.775 67.1093 194.202 67.344C194.65 67.5573 195.418 67.7706 196.506 67.984C198.852 68.3893 200.538 68.9973 201.562 69.808C202.607 70.5973 203.13 71.6853 203.13 73.072C203.13 74.6293 202.479 75.8986 201.178 76.88C199.876 77.84 197.988 78.32 195.514 78.32Z" fill="#E4E7FF"/>
</svg>
